<mxfile host="app.diagrams.net" modified="2023-10-07T10:40:35.302Z" agent="Mozilla/5.0 (Windows NT 10.0; Win64; x64) AppleWebKit/537.36 (KHTML, like Gecko) Chrome/117.0.0.0 Safari/537.36" version="22.0.4" etag="XvmdxdlgTpbuVnnn-Qih" type="github">
  <diagram name="Страница — 1" id="nPKgQsTqUa-yREv4XHLt">
    <mxGraphModel>
      <root>
        <mxCell id="0" />
        <mxCell id="1" parent="0" />
      </root>
    </mxGraphModel>
  </diagram>
</mxfile>
